PathFileType	4	(X/Y/Z)	C:/Users/opensim2020/Desktop/walking_exp_matlab/subject06_walking22_straight_01.trc	
DataRate	CameraRate	NumFrames	NumMarkers	Units	OrigDataRate	OrigDataStartFrame	OrigNumFrames	
100.00	100.00	9	44	mm	100.00	865	141	
Frame#	Time	LFHD			RFHD			LBHD			RBHD			C7			T10			CLAV			STRN			RBAK			LSHO			LUPA			LELB			LFRM			LWRA			LWRB			LFIN			RSHO			RUPA			RELB			RFRM			RWRA			RWRB			RFIN			LASI			RASI			LPSI			RPSI			LTHI			LKNE			LTIB			LANK			LHEE			LTOE			RTHI			RKNE			RTIB			RANK			RHEE			RTOE			*39			*40			*41			*42			*43			
		X1	Y1	Z1	X2	Y2	Z2	X3	Y3	Z3	X4	Y4	Z4	X5	Y5	Z5	X6	Y6	Z6	X7	Y7	Z7	X8	Y8	Z8	X9	Y9	Z9	X10	Y10	Z10	X11	Y11	Z11	X12	Y12	Z12	X13	Y13	Z13	X14	Y14	Z14	X15	Y15	Z15	X16	Y16	Z16	X17	Y17	Z17	X18	Y18	Z18	X19	Y19	Z19	X20	Y20	Z20	X21	Y21	Z21	X22	Y22	Z22	X23	Y23	Z23	X24	Y24	Z24	X25	Y25	Z25	X26	Y26	Z26	X27	Y27	Z27	X28	Y28	Z28	X29	Y29	Z29	X30	Y30	Z30	X31	Y31	Z31	X32	Y32	Z32	X33	Y33	Z33	X34	Y34	Z34	X35	Y35	Z35	X36	Y36	Z36	X37	Y37	Z37	X38	Y38	Z38	X39	Y39	Z39	X40	Y40	Z40	X41	Y41	Z41	X42	Y42	Z42	X43	Y43	Z43	X44	Y44	Z44	

124	1.230	1349.49500	618.16290	1648.29822	1480.58337	630.13977	1642.75269	1363.79065	483.14822	1601.24390	1492.30920	495.70309	1600.26685	1419.22070	481.68900	1444.16235	1435.87341	435.52856	1116.99731	1419.32471	588.42334	1363.32031	1412.95020	621.77295	1186.83948	1500.18701	402.89169	1278.23560	1259.45154	533.99640	1395.76672	1177.99573	553.68396	1199.34644	1158.06812	572.33453	1089.27039	1141.40063	666.88031	973.39606	1193.19287	777.10248	914.59869	1153.54297	734.16022	874.79688	1157.82593	814.72839	834.92041	1580.27283	545.40350	1398.99731	1673.02759	474.21210	1214.65308	1691.35132	460.30154	1093.79102	1715.43738	450.60233	974.96594	1690.50867	477.09207	824.06006	1732.80750	426.84845	839.31262	1736.10156	445.76773	756.14050	1314.93018	595.29901	949.09497	1534.05310	618.65839	959.69794	1360.27747	442.09238	982.60394	1527.04492	465.12021	982.98224	1283.19995	502.67111	637.12128	1315.63696	483.82944	474.34097	1343.30872	383.89026	235.70107	1403.66028	335.50421	76.09934	1452.80054	293.92453	70.60898	1394.27673	472.81589	38.41944	1608.85620	655.57434	645.45074	1586.19312	712.45441	532.73944	1587.07312	734.82916	271.51749	1547.60522	773.62695	88.96136	1498.14221	741.53644	68.87183	1550.96643	929.34259	48.82243	1415.27783	525.16992	1694.01233												 
125	1.240	1349.02637	631.53113	1645.89697	1480.06580	643.73242	1640.39270	1363.59265	496.65869	1598.34558	1492.04675	509.41452	1597.43372	1418.95020	495.78772	1441.62744	1436.32690	449.14307	1114.43176	1418.95972	602.56311	1360.65857	1412.31213	635.48444	1184.00317	1500.07031	416.93658	1275.68066	1259.23621	547.96881	1393.10132	1177.34277	569.48541	1197.17651	1157.22656	589.27795	1087.47900	1140.86243	687.39264	974.63959	1193.72620	798.76599	919.57355	1153.88550	757.59735	878.27271	1158.37793	839.50665	841.49542	1579.88892	559.75018	1396.32068	1672.82642	487.25745	1212.87122	1691.60327	472.45132	1092.04724	1716.07202	461.89774	973.35419	1691.59863	487.30713	822.18018	1733.73828	437.07486	837.92773	1737.07202	455.11224	754.56396	1314.57190	608.26221	946.78766	1533.75879	633.41974	956.92444	1361.07251	454.98920	979.84674	1527.81702	479.56628	980.05011	1283.10620	513.12848	635.44238	1315.61707	492.19864	472.83240	1343.91296	387.53043	236.10278	1404.41260	336.17413	77.30051	1453.66443	294.55704	72.46191	1394.40503	472.87778	38.29449	1610.63843	666.77679	641.23584	1587.87708	723.89514	527.57538	1587.62451	759.42206	269.55756	1548.26758	808.25000	89.50726	1499.30115	776.94641	69.21230	1547.10132	966.37653	50.86468	1414.92188	538.47211	1691.27148												 
126	1.250	1348.59326	644.85059	1643.39429	1479.58459	657.44904	1638.03137	1363.46167	510.25797	1595.40454	1491.76758	523.33649	1594.49731	1418.81580	509.92740	1439.04004	1436.86255	463.03088	1111.83325	1418.62549	616.78003	1357.99060	1411.79919	649.30286	1181.22021	1500.00659	431.01059	1273.11389	1258.98572	561.90594	1390.43628	1176.83728	585.12592	1194.97095	1156.35718	606.46710	1085.55786	1140.70386	707.07898	975.57550	1194.27917	819.83899	924.23352	1154.21558	780.32581	881.63196	1159.06396	863.43463	847.86731	1579.62219	574.11920	1393.64465	1672.87891	500.26321	1210.88135	1691.98376	484.89551	1090.22925	1716.62012	473.65445	971.61206	1692.73157	498.04617	820.20490	1734.74072	447.82162	836.46295	1738.32983	465.21246	752.99878	1314.20007	621.63257	944.50873	1533.51941	648.33972	954.27148	1361.97717	468.36075	976.74719	1528.67029	494.21698	976.91693	1282.93750	523.87573	633.86859	1315.47058	500.97769	471.29660	1344.31042	391.58139	236.55283	1404.90491	336.86417	78.87560	1453.99829	295.36594	74.56249	1394.47009	473.03207	38.22291	1611.94531	678.07733	637.19647	1589.53418	735.50952	522.64368	1588.13708	781.85254	267.84363	1549.01428	840.27618	90.77795	1500.62512	809.33746	70.77795	1543.28076	1000.54797	53.45835	1414.64136	551.89020	1688.51038												 
127	1.260	1348.19519	658.36548	1641.01294	1479.19177	671.26666	1635.71594	1363.36035	523.96869	1592.49902	1491.60950	537.31268	1591.66553	1418.73181	524.05664	1436.51550	1437.35034	476.94662	1109.31519	1418.37329	631.08337	1355.45728	1411.39392	663.23901	1178.53333	1499.92603	445.29761	1270.60132	1258.82788	575.86292	1387.71655	1176.45032	600.53137	1192.74780	1155.81641	623.20026	1083.66785	1140.63452	726.83838	976.34198	1194.80127	840.19470	928.63263	1154.55066	802.28552	884.81378	1159.64380	886.38312	853.93323	1579.42664	588.53967	1391.02148	1672.77795	513.70074	1208.96594	1692.46936	497.57922	1088.38574	1717.52930	485.60095	969.95721	1694.01807	509.33698	818.34802	1735.86914	459.02344	834.97699	1739.65393	476.01736	751.21771	1313.69336	635.16821	942.22052	1533.49316	663.46674	951.95953	1362.98035	482.01755	973.76251	1529.58325	509.16690	973.89661	1282.84180	534.73773	632.31415	1315.21606	510.08212	469.87634	1344.42651	395.84592	237.15224	1404.72766	337.74768	80.47262	1453.82043	296.08002	77.13650	1394.51636	473.17184	38.12295	1612.16797	690.02441	633.43817	1590.83203	747.08850	518.25098	1588.74402	802.91595	266.64505	1549.69543	869.74707	92.54105	1501.91199	838.68005	72.75237	1539.90613	1031.35107	56.38745	1414.41821	565.29669	1685.73657												 
128	1.270	1347.86597	671.91058	1638.76514	1478.86572	685.16931	1633.52393	1363.37427	537.63452	1589.76233	1491.54712	551.27557	1588.92578	1418.57104	538.29346	1434.11011	1437.81482	491.29370	1106.87598	1418.12305	645.38379	1352.94653	1410.97656	677.33466	1176.02930	1499.90686	459.59756	1268.08777	1258.77026	589.84497	1385.16577	1176.17468	615.73212	1190.56787	1155.42944	639.65210	1081.80750	1140.69409	745.42749	977.23413	1195.31213	859.88434	932.73254	1155.01318	823.38538	887.77917	1160.23987	908.27368	859.53278	1579.29944	603.07471	1388.49268	1672.81201	527.19116	1207.01526	1693.03674	510.62933	1086.56567	1718.32813	498.03418	968.25128	1695.03711	520.59021	816.20215	1736.96008	470.79095	833.46014	1741.25708	487.33453	749.89795	1313.21289	649.10535	940.03992	1533.44775	678.83337	949.82062	1364.06726	496.06210	970.92188	1530.60986	524.14856	971.22009	1282.67590	546.20734	630.82306	1314.93958	519.61255	468.41766	1344.19458	400.68939	238.01300	1404.11829	338.75900	82.59082	1453.00244	296.94223	80.18081	1394.49011	473.36075	38.08178	1612.32983	703.53955	630.36273	1591.41541	758.73279	514.48431	1589.45850	822.74323	265.89658	1550.28394	895.65765	94.25652	1502.91846	865.23999	74.58844	1537.47034	1058.44519	59.31543	1414.31116	578.85468	1683.16333												 
129	1.280	1347.55530	685.47650	1636.75378	1478.53687	699.18909	1631.51855	1363.37402	551.42236	1587.29517	1491.53699	565.47394	1586.49988	1418.70618	552.27588	1431.96606	1438.10779	505.99490	1104.43604	1417.97681	659.74109	1350.76050	1410.61829	691.62921	1173.77161	1499.90149	474.03308	1265.69226	1258.69141	603.71667	1382.79443	1176.05664	630.72833	1188.50916	1155.24622	655.84052	1080.02283	1140.89514	763.48096	977.93732	1195.79456	878.80481	936.53217	1155.44946	843.69751	890.67664	1160.80896	929.26355	864.78076	1579.26282	617.61139	1386.13525	1673.05078	540.95605	1205.10181	1693.65259	523.97845	1084.82178	1719.12805	511.10031	966.51050	1696.37708	532.91895	814.49310	1738.09778	483.13037	832.03577	1742.65222	499.27231	748.46155	1312.72314	663.32501	937.93713	1533.32910	694.27338	947.83014	1365.18628	510.46408	968.28027	1531.54272	539.70361	968.97369	1282.71973	557.83997	629.40045	1314.66382	529.66675	467.06198	1343.69031	405.96341	239.15707	1403.19202	339.91092	85.26645	1451.72546	297.82254	83.84000	1394.45105	473.61337	38.00729	1612.36523	717.89227	627.72217	1591.27014	771.23810	511.72189	1589.96033	841.07947	265.30399	1550.51062	917.85376	95.35766	1503.29175	888.41486	75.72199	1536.41870	1081.63696	61.12958	1414.24963	592.49451	1680.80322												 
130	1.290	1347.23767	699.17456	1634.99927	1478.22375	713.27899	1629.74670	1363.49463	565.22351	1585.20947	1491.59351	579.67291	1584.35742	1418.84155	566.38452	1429.96021	1438.35583	520.59210	1102.32361	1417.88452	674.11676	1348.86755	1410.36096	706.18707	1171.92139	1500.05542	488.51233	1263.51147	1258.65894	617.62689	1380.70776	1176.30664	645.57416	1186.48657	1155.35999	671.29065	1078.34155	1140.87915	781.28601	978.63208	1196.14453	897.03729	939.99146	1155.85681	863.14087	893.26581	1161.28528	949.25958	869.74390	1579.32227	632.25488	1384.06921	1673.26685	555.17371	1203.33752	1694.34375	537.82214	1083.15662	1720.02429	524.50470	964.91693	1697.65552	546.03137	812.93665	1739.29980	496.01065	830.72809	1744.38135	511.82977	747.21991	1312.34424	677.91357	935.93237	1533.17615	709.77087	946.06866	1366.15210	525.23657	966.00452	1532.42993	555.27203	967.12927	1282.76697	570.18970	627.98248	1314.34888	540.47925	465.82190	1343.02893	411.73343	240.54036	1401.96997	341.43201	88.36997	1450.13257	299.07703	88.11807	1394.37537	473.98047	37.94942	1612.45105	732.91998	625.55865	1590.44250	785.00067	509.70810	1589.93726	857.44574	264.31448	1550.18567	936.16980	95.16917	1501.99072	907.61682	76.44644	1536.83911	1100.96362	61.08056	1414.27002	606.22461	1678.74573												 
131	1.300	1347.02295	712.84772	1633.45251	1477.91003	727.48901	1628.23450	1363.70093	579.07147	1583.46716	1491.67468	594.03943	1582.62756	1419.05212	580.52502	1428.18384	1438.51672	535.65936	1100.27832	1417.83240	688.50763	1347.35498	1410.19153	720.99323	1170.47693	1500.25830	503.18219	1261.43823	1258.68274	631.48511	1378.94373	1176.35864	660.06403	1184.86401	1155.46277	686.74646	1076.76819	1141.19067	798.04102	978.99408	1196.50952	914.52667	943.10553	1156.33362	881.63989	895.60242	1161.65674	968.25708	874.09546	1579.41223	646.90521	1382.35168	1673.46045	569.75989	1201.82312	1695.01172	552.09076	1081.71094	1720.94812	538.46460	963.56390	1698.87231	559.46600	811.48108	1740.45313	509.56183	829.63123	1745.82141	525.01935	746.08173	1312.13586	692.90826	934.05585	1533.02466	725.42151	944.67023	1366.91626	540.40021	963.96716	1533.06836	570.78900	965.68982	1282.76819	583.19812	626.69147	1314.17542	551.83575	464.83069	1342.25049	418.13257	242.31737	1400.53625	343.32974	92.08016	1448.29443	300.74808	93.13898	1394.42029	474.10770	37.77032	1612.90344	748.89502	624.37585	1590.05408	801.04395	508.96240	1589.42737	871.78235	262.91965	1549.40820	950.91803	93.76914	1500.51404	923.42902	76.20139	1538.02966	1116.11108	58.21878	1414.30811	620.10211	1677.08582												 
132	1.310	1346.73572	726.57764	1632.17712	1477.52466	741.78790	1627.02002	1363.98669	592.87408	1582.13342	1491.90588	608.40472	1581.34998	1419.31055	594.71356	1426.66943	1438.52612	550.95709	1098.54810	1417.82605	702.98407	1346.18665	1410.09668	735.98334	1169.38269	1500.54675	518.14862	1259.52893	1258.76660	645.43353	1377.52527	1176.67773	674.28540	1183.37976	1156.02429	701.28845	1075.42639	1141.65479	814.10425	979.42340	1196.80493	931.28491	945.82397	1156.94739	899.13416	897.57471	1161.97888	986.37146	877.70129	1579.51868	661.55353	1380.97144	1673.76746	584.63617	1200.55884	1695.60791	566.88898	1080.51843	1721.91150	552.86383	962.49091	1699.98132	573.43616	810.21521	1741.66992	523.66010	828.74182	1747.51050	538.82520	745.27606	1312.19141	708.23688	932.32440	1533.09875	741.21906	943.67584	1367.37463	555.99933	962.09998	1533.44214	586.53387	964.70331	1282.75037	596.97766	625.55408	1314.01636	563.94299	463.96335	1341.41504	425.04263	244.52763	1399.07776	345.69315	96.47363	1446.42749	302.94873	98.92395	1394.40759	474.53510	37.77011	1613.31470	765.50684	623.87244	1589.63562	818.00488	509.13425	1588.87830	885.11725	261.09903	1548.36768	962.48065	91.26781	1498.85913	935.73761	74.93178	1538.87378	1127.41553	52.66909	1414.76099	634.51697	1675.94043												 
